<?xml version="1.0" encoding="UTF-8" standalone="no"?>
<!-- Created with Inkscape (http://www.inkscape.org/) -->

<svg
   version="1.1"
   id="svg4851"
   xml:space="preserve"
   width="326.71762"
   height="682.34637"
   viewBox="0 0 326.71762 682.34638"
   xmlns="http://www.w3.org/2000/svg"
   xmlns:svg="http://www.w3.org/2000/svg"><defs
     id="defs4855"><clipPath
       clipPathUnits="userSpaceOnUse"
       id="clipPath4865"><path
         d="M 0,512 H 512 V 0 H 0 Z"
         id="path4863" /></clipPath></defs><g
     id="g4857"
     transform="matrix(1.3333333,0,0,-1.3333333,-177.66625,682.34638)"
     style="stroke:#ffffff;stroke-opacity:1"><g
       id="g4859"
       style="stroke:#ffffff;stroke-opacity:1"><g
         id="g4861"
         clip-path="url(#clipPath4865)"
         style="stroke:#ffffff;stroke-opacity:1"><g
           id="g4867"
           transform="translate(281.6123,382.876)"
           style="stroke:#ffffff;stroke-opacity:1"><path
             d="m 0,0 c -39.56,-0.554 -88.711,-0.104 -139.175,3.191 -3.754,23.982 0,49.062 0,49.062 0,0 109.812,7.63 226.663,0 3.754,-23.982 0,-49.062 0,-49.062 0,0 -19.676,-1.367 -51.234,-2.366"
             style="fill:none;stroke:#ffffff;stroke-width:15;stroke-linecap:round;stroke-linejoin:round;stroke-miterlimit:10;stroke-dasharray:none;stroke-opacity:1"
             id="path4869" /></g><g
           id="g4871"
           transform="translate(180.6045,501.3545)"
           style="stroke:#ffffff;stroke-opacity:1"><path
             d="m 0,0 c -18.582,-1.425 -29.836,-2.839 -29.836,-2.839 0,0 7.485,-30.983 21.967,-61.967"
             style="fill:none;stroke:#ffffff;stroke-width:15;stroke-linecap:round;stroke-linejoin:round;stroke-miterlimit:10;stroke-dasharray:none;stroke-opacity:1"
             id="path4873" /></g><g
           id="g4875"
           transform="translate(338.8018,436.5488)"
           style="stroke:#ffffff;stroke-opacity:1"><path
             d="m 0,0 c 14.481,30.983 21.967,61.967 21.967,61.967 0,0 -45.709,5.744 -105,5.744 -12.883,0 -25.124,-0.272 -36.395,-0.695"
             style="fill:none;stroke:#ffffff;stroke-width:15;stroke-linecap:round;stroke-linejoin:round;stroke-miterlimit:10;stroke-dasharray:none;stroke-opacity:1"
             id="path4877" /></g><g
           id="g4879"
           transform="translate(159.5737,77.667)"
           style="stroke:#ffffff;stroke-opacity:1"><path
             d="M 0,0 C -41.931,109.196 8.5,306.958 8.5,306.958"
             style="fill:none;stroke:#ffffff;stroke-width:15;stroke-linecap:round;stroke-linejoin:round;stroke-miterlimit:10;stroke-dasharray:none;stroke-opacity:1"
             id="path4881" /></g><g
           id="g4883"
           transform="translate(368.5059,201.1934)"
           style="stroke:#ffffff;stroke-opacity:1"><path
             d="m 0,0 c 1.939,-96.059 -19.067,-193.934 -112.737,-193.934 -36.745,0 -62.308,15.062 -79.691,39.167"
             style="fill:none;stroke:#ffffff;stroke-width:15;stroke-linecap:round;stroke-linejoin:round;stroke-miterlimit:10;stroke-dasharray:none;stroke-opacity:1"
             id="path4885" /></g><g
           id="g4887"
           transform="translate(343.4629,384.625)"
           style="stroke:#ffffff;stroke-opacity:1"><path
             d="M 0,0 C 0,0 17.857,-70.025 23.485,-149.746"
             style="fill:none;stroke:#ffffff;stroke-width:15;stroke-linecap:round;stroke-linejoin:round;stroke-miterlimit:10;stroke-dasharray:none;stroke-opacity:1"
             id="path4889" /></g><g
           id="g4891"
           transform="translate(151.3599,297.0469)"
           style="stroke:#ffffff;stroke-opacity:1"><path
             d="m 0,0 c 0,0 25.118,31.843 74.162,31.843 57.108,0 69.913,-33.237 134.854,-33.237"
             style="fill:none;stroke:#ffffff;stroke-width:15;stroke-linecap:butt;stroke-linejoin:round;stroke-miterlimit:10;stroke-dasharray:none;stroke-opacity:1"
             id="path4893" /></g><g
           id="g4895"
           transform="translate(232.0117,256)"
           style="stroke:#ffffff;stroke-opacity:1"><path
             d="m 0,0 c 0,-8.302 -6.723,-15.031 -15.016,-15.031 -8.293,0 -15.015,6.729 -15.015,15.031 0,8.302 6.722,15.031 15.015,15.031 C -6.723,15.031 0,8.302 0,0 Z"
             style="fill:none;stroke:#ffffff;stroke-width:15;stroke-linecap:butt;stroke-linejoin:round;stroke-miterlimit:10;stroke-dasharray:none;stroke-opacity:1"
             id="path4897" /></g><g
           id="g4899"
           transform="translate(314.7705,230.8945)"
           style="stroke:#ffffff;stroke-opacity:1"><path
             d="m 0,0 c 0,-8.302 -6.723,-15.031 -15.016,-15.031 -8.293,0 -15.015,6.729 -15.015,15.031 0,8.302 6.722,15.031 15.015,15.031 C -6.723,15.031 0,8.302 0,0 Z"
             style="fill:none;stroke:#ffffff;stroke-width:15;stroke-linecap:butt;stroke-linejoin:round;stroke-miterlimit:10;stroke-dasharray:none;stroke-opacity:1"
             id="path4901" /></g><g
           id="g4903"
           transform="translate(247.0278,138.2891)"
           style="stroke:#ffffff;stroke-opacity:1"><path
             d="m 0,0 c 0,-8.302 -6.723,-15.031 -15.016,-15.031 -8.293,0 -15.016,6.729 -15.016,15.031 0,8.302 6.723,15.031 15.016,15.031 C -6.723,15.031 0,8.302 0,0 Z"
             style="fill:none;stroke:#ffffff;stroke-width:15;stroke-linecap:butt;stroke-linejoin:round;stroke-miterlimit:10;stroke-dasharray:none;stroke-opacity:1"
             id="path4905" /></g><g
           id="g4907"
           transform="translate(314.7705,158.1328)"
           style="stroke:#ffffff;stroke-opacity:1"><path
             d="M 0,0 V 0"
             style="fill:none;stroke:#ffffff;stroke-width:15;stroke-linecap:round;stroke-linejoin:round;stroke-miterlimit:10;stroke-dasharray:none;stroke-opacity:1"
             id="path4909" /></g><g
           id="g4911"
           transform="translate(268.3047,75.1035)"
           style="stroke:#ffffff;stroke-opacity:1"><path
             d="M 0,0 V 0"
             style="fill:none;stroke:#ffffff;stroke-width:15;stroke-linecap:round;stroke-linejoin:round;stroke-miterlimit:10;stroke-dasharray:none;stroke-opacity:1"
             id="path4913" /></g><g
           id="g4915"
           transform="translate(199.4346,193.1191)"
           style="stroke:#ffffff;stroke-opacity:1"><path
             d="M 0,0 V 0"
             style="fill:none;stroke:#ffffff;stroke-width:15;stroke-linecap:round;stroke-linejoin:round;stroke-miterlimit:10;stroke-dasharray:none;stroke-opacity:1"
             id="path4917" /></g></g></g></g></svg>
