<?xml version="1.0" encoding="UTF-8" standalone="no"?>
<!-- Created with Inkscape (http://www.inkscape.org/) -->

<svg
   version="1.1"
   id="svg7653"
   xml:space="preserve"
   width="682.66669"
   height="682.66669"
   viewBox="0 0 682.66669 682.66669"
   xmlns="http://www.w3.org/2000/svg"
   xmlns:svg="http://www.w3.org/2000/svg"><defs
     id="defs7657"><clipPath
       clipPathUnits="userSpaceOnUse"
       id="clipPath7667"><path
         d="M 0,512 H 512 V 0 H 0 Z"
         id="path7665" /></clipPath><clipPath
       clipPathUnits="userSpaceOnUse"
       id="clipPath7683"><path
         d="M 0,512 H 512 V 0 H 0 Z"
         id="path7681" /></clipPath><clipPath
       clipPathUnits="userSpaceOnUse"
       id="clipPath7787"><path
         d="M 0,512 H 512 V 0 H 0 Z"
         id="path7785" /></clipPath><clipPath
       clipPathUnits="userSpaceOnUse"
       id="clipPath7799"><path
         d="M 0,512 H 512 V 0 H 0 Z"
         id="path7797" /></clipPath></defs><g
     id="g7659"
     transform="matrix(1.3333333,0,0,-1.3333333,0,682.66667)"><g
       id="g7661"><g
         id="g7663"
         clip-path="url(#clipPath7667)"><g
           id="g7669"
           transform="translate(-51,25.3203)"><path
             d="m 0,0 c 0,0 -9.72,-3.23 -33.16,-6.99 -1.11,-0.18 -2.25,-0.361 -3.42,-0.54 -25.93,-3.991 -67.11,-8.45 -128.15,-10.29 -33.65,86.28 155.42,257.66 -44.98,393.9 l 2.18,9.96 0.14,0.62 c 22.02,56.93 85.59,77.58 105.76,82.81 3.94,1.02 6.22,1.45 6.22,1.45 l 6.03,0.41 c 0,0 -39.41,-14.79 -43.67,-75.53 C 66.47,395.8 -100.39,0 0,0"
             style="fill:#fd3581;fill-opacity:1;fill-rule:nonzero;stroke:none"
             id="path7671" /></g><g
           id="g7673"
           transform="translate(-51,25.3203)"><path
             d="m 0,0 c 0,0 -9.72,-3.23 -33.16,-6.99 -76.01,30.41 69.35,396.79 -121.89,396.79 2.84,40.46 33.36,66.67 53.42,79.67 3.94,1.02 6.22,1.45 6.22,1.45 l 6.03,0.41 c 0,0 -39.41,-14.79 -43.67,-75.53 C 66.47,395.8 -100.39,0 0,0"
             style="fill:#c3186c;fill-opacity:1;fill-rule:nonzero;stroke:none"
             id="path7675" /></g></g></g><g
       id="g7677"><g
         id="g7679"
         clip-path="url(#clipPath7683)"><g
           id="g7685"
           transform="translate(255.9902,7.5)"><path
             d="m 0,0 c -4.86,0 -9.53,0.26 -14,0.77 -111.96,12.839 -105.87,181.83 -90.41,289.02 7.31,50.69 16.71,87.57 16.71,87.57 H 87.689 c 0,0 9.581,-37.549 16.911,-88.97 C 120.52,176.82 125.899,0 0,0"
             style="fill:#f4eafa;fill-opacity:1;fill-rule:nonzero;stroke:none"
             id="path7687" /></g><g
           id="g7689"
           transform="translate(255.9902,7.5)"><path
             d="M 0,0 C -4.86,0 -9.53,0.26 -14,0.77 97.47,13.561 91.91,181.13 76.6,288.39 70.24,333.03 62.18,368.72 60.17,377.36 h 27.519 c 0,0 9.581,-37.549 16.911,-88.97 C 120.52,176.82 125.899,0 0,0"
             style="fill:#e1d3ea;fill-opacity:1;fill-rule:nonzero;stroke:none"
             id="path7691" /></g><g
           id="g7693"
           transform="translate(369.3203,386.3105)"><path
             d="m 0,0 c 0,0 -9.11,-0.631 -24.87,-1.351 -38.96,-1.78 -118.59,-4.08 -201.8,1.351 -3.75,23.979 0,49.06 0,49.06 0,0 94.55,6.569 201.539,1.419 C -16.82,50.079 -8.431,49.609 0,49.06 3.75,25.079 0,0 0,0"
             style="fill:#685e68;fill-opacity:1;fill-rule:nonzero;stroke:none"
             id="path7695" /></g><g
           id="g7697"
           transform="translate(369.3203,386.3105)"><path
             d="m 0,0 c 0,0 -9.11,-0.631 -24.87,-1.351 1.78,23.68 0.53,43.161 -0.261,51.83 C -16.82,50.079 -8.431,49.609 0,49.06 3.75,25.079 0,0 0,0"
             style="fill:#433f43;fill-opacity:1;fill-rule:nonzero;stroke:none"
             id="path7699" /></g><g
           id="g7701"
           transform="translate(360.9902,498.7598)"><path
             d="M 0,0 C 0,0 -7.49,-30.99 -21.971,-61.97 H -188.04 C -202.521,-30.99 -210,0 -210,0 c 0,0 45.7,5.74 105,5.74 28.649,0 54.109,-1.34 72.79,-2.73 C -12.21,1.53 0,0 0,0"
             style="fill:#fee97d;fill-opacity:1;fill-rule:nonzero;stroke:none"
             id="path7703" /></g><g
           id="g7705"
           transform="translate(360.9902,498.7598)"><path
             d="M 0,0 C 0,0 -7.49,-30.99 -21.971,-61.97 H -51.58 C -39.9,-30.59 -33.96,-5.12 -32.21,3.01 -12.21,1.53 0,0 0,0"
             style="fill:#fac600;fill-opacity:1;fill-rule:nonzero;stroke:none"
             id="path7707" /></g><g
           id="g7709"
           transform="translate(255.9902,7.5)"><path
             d="m 0,0 c -4.86,0 -9.53,0.26 -14,0.77 -111.96,12.839 -105.87,181.83 -90.41,289.02 0,0 25.12,31.84 74.16,31.84 47.68,0 64.47,-23.17 106.5,-30.81 8.32,-1.52 17.62,-2.43 28.35,-2.43 C 120.52,176.82 125.899,0 0,0"
             style="fill:#bd80e1;fill-opacity:1;fill-rule:nonzero;stroke:none"
             id="path7711" /></g><g
           id="g7713"
           transform="translate(255.9902,7.5)"><path
             d="m 0,0 c -4.86,0 -9.53,0.26 -14,0.77 111.47,12.791 105.91,180.36 90.6,287.62 -0.121,0.81 -0.23,1.62 -0.35,2.43 8.32,-1.52 17.62,-2.43 28.35,-2.43 C 120.52,176.82 125.899,0 0,0"
             style="fill:#9857bd;fill-opacity:1;fill-rule:nonzero;stroke:none"
             id="path7715" /></g><g
           id="g7717"
           transform="translate(232.229,256.2402)"><path
             d="m 0,0 c 0,-8.302 -6.723,-15.031 -15.016,-15.031 -8.293,0 -15.016,6.729 -15.016,15.031 0,8.302 6.723,15.031 15.016,15.031 C -6.723,15.031 0,8.302 0,0"
             style="fill:#9857bd;fill-opacity:1;fill-rule:nonzero;stroke:none"
             id="path7719" /></g><g
           id="g7721"
           transform="translate(314.9873,231.1348)"><path
             d="m 0,0 c 0,-8.302 -6.723,-15.031 -15.016,-15.031 -8.293,0 -15.015,6.729 -15.015,15.031 0,8.302 6.722,15.031 15.015,15.031 C -6.723,15.031 0,8.302 0,0"
             style="fill:#9857bd;fill-opacity:1;fill-rule:nonzero;stroke:none"
             id="path7723" /></g><g
           id="g7725"
           transform="translate(247.2446,138.5293)"><path
             d="m 0,0 c 0,-8.302 -6.723,-15.031 -15.016,-15.031 -8.293,0 -15.015,6.729 -15.015,15.031 0,8.302 6.722,15.031 15.015,15.031 C -6.723,15.031 0,8.302 0,0"
             style="fill:#9857bd;fill-opacity:1;fill-rule:nonzero;stroke:none"
             id="path7727" /></g><g
           id="g7729"
           transform="translate(281.8291,383.1162)"><path
             d="m 0,0 c -39.56,-0.554 -88.711,-0.104 -139.175,3.191 -3.754,23.982 0,49.062 0,49.062 0,0 109.812,7.63 226.663,0 3.754,-23.982 0,-49.062 0,-49.062 0,0 -19.676,-1.367 -51.233,-2.366"
             style="fill:none;stroke:#000000;stroke-width:15;stroke-linecap:round;stroke-linejoin:round;stroke-miterlimit:10;stroke-dasharray:none;stroke-opacity:1"
             id="path7731" /></g><g
           id="g7733"
           transform="translate(180.8218,501.5947)"><path
             d="m 0,0 c -18.583,-1.425 -29.836,-2.839 -29.836,-2.839 0,0 7.485,-30.983 21.967,-61.967"
             style="fill:none;stroke:#000000;stroke-width:15;stroke-linecap:round;stroke-linejoin:round;stroke-miterlimit:10;stroke-dasharray:none;stroke-opacity:1"
             id="path7735" /></g><g
           id="g7737"
           transform="translate(339.0186,436.7891)"><path
             d="m 0,0 c 14.482,30.983 21.967,61.967 21.967,61.967 0,0 -45.709,5.744 -105,5.744 -12.883,0 -25.124,-0.272 -36.395,-0.695"
             style="fill:none;stroke:#000000;stroke-width:15;stroke-linecap:round;stroke-linejoin:round;stroke-miterlimit:10;stroke-dasharray:none;stroke-opacity:1"
             id="path7739" /></g><g
           id="g7741"
           transform="translate(159.791,77.9072)"><path
             d="M 0,0 C -41.932,109.196 8.5,306.958 8.5,306.958"
             style="fill:none;stroke:#000000;stroke-width:15;stroke-linecap:round;stroke-linejoin:round;stroke-miterlimit:10;stroke-dasharray:none;stroke-opacity:1"
             id="path7743" /></g><g
           id="g7745"
           transform="translate(368.7227,201.4336)"><path
             d="m 0,0 c 1.939,-96.059 -19.067,-193.934 -112.737,-193.934 -36.745,0 -62.308,15.062 -79.691,39.167"
             style="fill:none;stroke:#000000;stroke-width:15;stroke-linecap:round;stroke-linejoin:round;stroke-miterlimit:10;stroke-dasharray:none;stroke-opacity:1"
             id="path7747" /></g><g
           id="g7749"
           transform="translate(343.6807,384.8652)"><path
             d="M 0,0 C 0,0 17.856,-70.025 23.484,-149.746"
             style="fill:none;stroke:#000000;stroke-width:15;stroke-linecap:round;stroke-linejoin:round;stroke-miterlimit:10;stroke-dasharray:none;stroke-opacity:1"
             id="path7751" /></g><g
           id="g7753"
           transform="translate(151.5767,297.2871)"><path
             d="m 0,0 c 0,0 25.119,31.843 74.162,31.843 57.108,0 69.913,-33.237 134.854,-33.237"
             style="fill:none;stroke:#000000;stroke-width:15;stroke-linecap:butt;stroke-linejoin:round;stroke-miterlimit:10;stroke-dasharray:none;stroke-opacity:1"
             id="path7755" /></g><g
           id="g7757"
           transform="translate(232.229,256.2402)"><path
             d="m 0,0 c 0,-8.302 -6.723,-15.031 -15.016,-15.031 -8.293,0 -15.016,6.729 -15.016,15.031 0,8.302 6.723,15.031 15.016,15.031 C -6.723,15.031 0,8.302 0,0 Z"
             style="fill:none;stroke:#000000;stroke-width:15;stroke-linecap:butt;stroke-linejoin:round;stroke-miterlimit:10;stroke-dasharray:none;stroke-opacity:1"
             id="path7759" /></g><g
           id="g7761"
           transform="translate(314.9873,231.1348)"><path
             d="m 0,0 c 0,-8.302 -6.723,-15.031 -15.016,-15.031 -8.293,0 -15.015,6.729 -15.015,15.031 0,8.302 6.722,15.031 15.015,15.031 C -6.723,15.031 0,8.302 0,0 Z"
             style="fill:none;stroke:#000000;stroke-width:15;stroke-linecap:butt;stroke-linejoin:round;stroke-miterlimit:10;stroke-dasharray:none;stroke-opacity:1"
             id="path7763" /></g><g
           id="g7765"
           transform="translate(247.2446,138.5293)"><path
             d="m 0,0 c 0,-8.302 -6.723,-15.031 -15.016,-15.031 -8.293,0 -15.015,6.729 -15.015,15.031 0,8.302 6.722,15.031 15.015,15.031 C -6.723,15.031 0,8.302 0,0 Z"
             style="fill:none;stroke:#000000;stroke-width:15;stroke-linecap:butt;stroke-linejoin:round;stroke-miterlimit:10;stroke-dasharray:none;stroke-opacity:1"
             id="path7767" /></g><g
           id="g7769"
           transform="translate(314.9873,158.373)"><path
             d="M 0,0 V 0"
             style="fill:none;stroke:#000000;stroke-width:15;stroke-linecap:round;stroke-linejoin:round;stroke-miterlimit:10;stroke-dasharray:none;stroke-opacity:1"
             id="path7771" /></g><g
           id="g7773"
           transform="translate(268.5215,75.3438)"><path
             d="M 0,0 V 0"
             style="fill:none;stroke:#000000;stroke-width:15;stroke-linecap:round;stroke-linejoin:round;stroke-miterlimit:10;stroke-dasharray:none;stroke-opacity:1"
             id="path7775" /></g><g
           id="g7777"
           transform="translate(199.6519,193.3594)"><path
             d="M 0,0 V 0"
             style="fill:none;stroke:#000000;stroke-width:15;stroke-linecap:round;stroke-linejoin:round;stroke-miterlimit:10;stroke-dasharray:none;stroke-opacity:1"
             id="path7779" /></g></g></g><g
       id="g7781"><g
         id="g7783"
         clip-path="url(#clipPath7787)"><g
           id="g7789"
           transform="translate(787.8398,6.9307)"><path
             d="m 0,0 h -0.189 c -5.09,0 -10.061,0.08 -14.911,0.239 -310.37,10 -144.17,331.34 -39.66,392.24 -66.24,20.35 -53.25,104.52 -53.25,104.52 26.981,0 26.981,-36.02 53.96,-36.02 26.98,0 26.98,36.02 53.96,36.02 26.97,0 26.97,-36.02 53.95,-36.02 16.19,0 22.661,12.97 31.09,23.34 5.6,6.91 12.08,12.68 22.87,12.68 0,0 12.991,-84.17 -53.25,-104.52 C 160.71,330.629 330.49,0.13 0,0"
             style="fill:#fee97d;fill-opacity:1;fill-rule:nonzero;stroke:none"
             id="path7791" /></g></g></g><g
       id="g7793"><g
         id="g7795"
         clip-path="url(#clipPath7799)"><g
           id="g7801"
           transform="translate(449.4004,-473.1201)"><path
             d="m 0,0 h -386.62 c -23.51,67.2 27.59,90.54 -1.03,203.02 -61.67,242.36 186.33,288.559 291.4,202.11 1.5,0.66 3.239,1.269 5.189,1.769 C -56.87,415.91 39.47,396.66 0.359,186.87 -20.91,72.761 23.51,67.2 0,0"
             style="fill:#685e68;fill-opacity:1;fill-rule:nonzero;stroke:none"
             id="path7803" /></g></g></g></g></svg>
